<?xml version="1.0" standalone="no"?>
<!DOCTYPE svg PUBLIC "-//W3C//DTD SVG 20010904//EN"
 "http://www.w3.org/TR/2001/REC-SVG-20010904/DTD/svg10.dtd">
<svg version="1.0" xmlns="http://www.w3.org/2000/svg"
 width="300.000000pt" height="300.000000pt" viewBox="0 0 300.000000 300.000000"
 preserveAspectRatio="xMidYMid meet">
<metadata>
Created by potrace 1.10, written by Peter Selinger 2001-2011
</metadata>
<g transform="translate(0.000000,300.000000) scale(0.050000,-0.050000)"
fill="#ffffff" stroke="none">
<path d="M2850 5608 c-377 -52 -639 -154 -900 -347 -147 -108 -160 -110 -292
-41 -198 103 -338 32 -338 -172 0 -90 87 -308 123 -308 9 0 16 -7 14 -15 -2
-8 3 -31 12 -50 10 -24 -3 -58 -44 -110 -201 -254 -246 -474 -266 -1285 -18
-773 -50 -968 -232 -1447 -91 -239 -90 -328 5 -433 108 -119 168 -108 412 72
157 115 157 115 276 -71 225 -350 315 -378 568 -178 138 110 111 131 371 -293
419 -684 469 -678 964 128 157 255 170 265 261 195 38 -29 76 -46 84 -38 9 8
12 2 9 -13 -14 -56 170 -130 237 -95 77 40 199 177 291 329 92 151 101 152
290 14 179 -131 327 -176 310 -95 -2 13 7 19 20 14 14 -5 46 22 72 60 64 94
52 192 -64 521 -159 454 -211 850 -212 1613 -1 478 -66 756 -231 988 l-66 93
78 152 c129 253 82 482 -98 484 -52 0 -164 -52 -164 -77 0 -9 -11 -16 -25 -17
-14 0 -44 -6 -67 -13 -31 -10 -82 14 -200 94 -375 255 -848 390 -1198 341z
m453 -256 c288 -55 554 -184 753 -362 140 -126 228 -109 409 76 252 257 -40
-225 -317 -525 -150 -162 -457 -408 -672 -537 -197 -119 -183 -116 -286 -64
-106 54 -270 53 -384 -2 l-87 -42 -148 85 c-441 252 -898 701 -1084 1066 -66
129 -49 136 55 23 180 -195 256 -205 432 -61 368 304 864 432 1329 343z
m-1616 -947 c38 -52 97 -121 130 -153 l61 -58 -42 -81 c-168 -331 53 -700 446
-747 l103 -12 -13 -112 c-16 -136 -7 -127 -298 -288 l-236 -130 240 -133 c413
-229 572 -505 833 -1453 40 -147 80 -275 88 -283 7 -9 48 108 90 260 274 980
428 1253 828 1466 133 71 242 134 242 139 0 6 -117 76 -260 156 -259 146 -259
146 -259 220 0 41 -6 93 -12 116 -10 38 -1 43 89 54 390 46 612 392 465 724
l-42 95 87 103 c47 56 102 127 122 157 49 76 58 71 117 -60 132 -299 138 -341
155 -1045 21 -889 91 -1255 329 -1723 39 -76 65 -137 60 -137 -6 0 -129 99
-275 220 -146 120 -269 219 -275 219 -5 0 -85 -126 -177 -279 -92 -153 -179
-294 -194 -314 -25 -33 -43 -20 -230 164 -112 110 -208 189 -212 177 -9 -24
-587 -970 -627 -1027 -12 -17 -25 -21 -31 -10 -5 11 -136 227 -290 478 -155
252 -295 484 -311 516 l-30 59 -210 -194 c-115 -107 -212 -191 -216 -187 -4 5
-86 139 -183 298 -96 160 -182 298 -190 307 -9 10 -135 -82 -281 -204 -147
-122 -269 -218 -273 -214 -4 4 25 72 66 152 220 438 290 805 310 1639 17 703
25 765 142 1061 74 187 73 187 164 64z m2278 -527 c0 -193 -227 -307 -468
-235 -101 31 -99 35 51 115 70 37 184 110 255 162 142 104 162 99 162 -42z
m-1783 56 c100 -75 261 -173 343 -209 75 -33 69 -59 -20 -84 -280 -78 -537
108 -453 327 17 44 30 41 130 -34z m968 -254 c140 -87 230 -305 230 -562 0
-148 1 -149 160 -236 104 -57 105 -58 58 -83 -229 -122 -428 -439 -549 -874
-31 -114 -69 -167 -69 -96 0 248 -328 834 -528 941 -95 52 -92 59 48 130 66
33 120 72 120 85 7 576 236 877 530 695z"/>
</g>
</svg>
