<?xml version="1.0" standalone="no"?>
<!DOCTYPE svg PUBLIC "-//W3C//DTD SVG 20010904//EN"
 "http://www.w3.org/TR/2001/REC-SVG-20010904/DTD/svg10.dtd">
<svg version="1.0" xmlns="http://www.w3.org/2000/svg"
 width="32.000000pt" height="32.000000pt" viewBox="0 0 300.000000 300.000000"
 preserveAspectRatio="xMidYMid meet">
<metadata>
Created by potrace 1.10, written by Peter Selinger 2001-2011
</metadata>
<g transform="translate(-150.000000,300.000000) scale(0.10000,-0.10000)"
fill="#ffffff" stroke="none">
<path d="M2785 2879 c-930 -167 -1308 -1325 -656 -2014 772 -817 2134 -223
2066 901 -44 713 -710 1239 -1410 1113z m331 -212 c170 -9 205 -16 196 -40 -7
-16 -5 -25 4 -20 27 17 154 -20 149 -44 -3 -13 9 -23 26 -23 35 0 129 -58 129
-80 0 -8 -54 -19 -121 -25 -66 -6 -134 -23 -151 -37 -17 -14 -48 -27 -68 -28
-20 -2 -51 -18 -69 -37 -19 -18 -59 -33 -91 -33 -73 0 -123 -19 -109 -42 6
-10 -16 -18 -49 -18 -33 0 -64 -8 -70 -17 -6 -10 -52 -29 -101 -43 -50 -14
-91 -33 -91 -42 0 -9 -13 -12 -30 -5 -19 7 -30 -1 -30 -21 0 -18 -7 -31 -15
-30 -62 10 -171 -5 -147 -20 29 -19 -81 -55 -135 -44 -15 2 -21 -5 -14 -17 14
-22 11 -23 -67 -31 -26 -3 -56 -19 -66 -37 -10 -18 -36 -33 -57 -33 -21 0 -37
-11 -34 -25 3 -14 -19 -28 -50 -31 -30 -4 -55 3 -55 15 0 11 8 21 17 21 10 0
15 22 12 50 -3 27 3 55 13 61 10 6 18 33 18 60 0 27 10 49 21 49 12 0 16 8 10
19 -6 10 -2 24 9 31 11 7 15 23 7 34 -8 13 -4 16 10 8 21 -13 32 11 25 53 -1
8 12 15 28 15 17 0 30 13 30 29 0 16 14 37 32 47 17 10 31 26 30 36 -1 10 8
18 20 18 11 0 33 16 47 35 14 19 34 35 44 35 10 0 34 18 52 40 19 22 49 40 66
40 17 0 26 9 19 19 -6 11 29 30 79 43 50 12 91 30 91 39 0 9 38 19 85 23 47 3
99 8 115 10 17 3 123 0 236 -7z m523 -445 c15 -27 4 -107 -38 -295 -31 -141
-87 -400 -123 -574 -63 -302 -95 -384 -145 -367 -29 9 -590 421 -592 434 0 6
143 139 319 296 460 411 447 415 -132 42 l-377 -242 -200 59 c-314 92 -322 86
499 407 757 296 759 296 789 240z m268 -129 c-1 -18 5 -33 14 -33 14 0 47
-100 48 -150 1 -11 9 -26 20 -33 11 -9 9 -26 -6 -44 -20 -23 -19 -31 1 -38 30
-10 28 -265 -1 -303 -10 -12 -15 -38 -12 -57 3 -19 -3 -40 -13 -46 -10 -7 -13
-20 -7 -30 6 -11 1 -19 -12 -19 -13 0 -18 -14 -11 -31 6 -17 -2 -35 -19 -42
-16 -6 -28 -22 -27 -34 6 -52 -3 -75 -25 -61 -14 8 -18 5 -10 -7 7 -12 0 -35
-17 -52 -16 -17 -30 -40 -30 -53 0 -12 -8 -18 -17 -12 -20 13 -71 -41 -89 -93
-7 -20 -20 -34 -28 -32 -30 6 -86 -27 -75 -45 6 -10 -23 -17 -65 -17 -63 1
-69 4 -33 19 24 9 50 28 58 42 10 16 6 19 -13 9 -15 -8 -5 5 22 29 28 24 37
38 20 30 -24 -10 -24 -8 2 14 17 14 28 37 23 51 -5 14 2 25 15 25 12 0 17 9
10 20 -7 11 -6 30 2 43 8 13 18 51 22 85 10 81 22 142 27 142 6 0 20 93 21
135 0 19 10 35 21 35 13 0 16 21 8 52 -8 33 -5 47 8 38 13 -7 22 15 24 59 2
69 7 106 17 116 2 3 6 28 7 55 2 28 10 61 19 75 10 14 7 25 -5 25 -14 0 -15
12 -2 35 10 19 24 59 30 88 12 59 83 68 78 10z m-1750 -633 c14 0 20 -8 14
-18 -6 -10 23 -24 64 -32 41 -7 80 -22 87 -33 7 -11 43 -20 80 -21 37 -1 77
-8 88 -16 11 -8 34 -15 50 -16 66 -4 102 -18 139 -58 21 -23 33 -47 26 -54 -6
-7 1 -12 16 -12 15 0 54 -27 88 -59 143 -138 195 -181 210 -172 9 6 32 -8 51
-29 20 -22 49 -40 64 -40 15 0 32 -13 38 -29 6 -16 38 -34 70 -41 32 -7 53
-22 47 -32 -13 -21 49 -15 87 10 15 9 55 20 90 24 l64 9 -50 -29 c-27 -16 -56
-24 -64 -19 -8 5 -37 -6 -64 -24 -28 -18 -66 -35 -86 -39 -20 -4 -40 -9 -46
-11 -30 -11 -73 -7 -97 9 -17 13 -31 11 -41 -5 -16 -25 -224 -21 -352 8 -33 7
-73 16 -90 19 -16 4 -38 8 -48 8 -10 1 -13 8 -6 15 18 17 -85 70 -108 56 -10
-6 -18 -2 -18 10 0 11 -13 21 -29 21 -16 0 -39 18 -51 40 -12 22 -28 38 -36
35 -8 -2 -45 26 -84 63 -38 37 -56 61 -40 53 17 -8 9 5 -17 27 -26 23 -40 42
-30 43 9 0 1 9 -18 21 -19 11 -35 33 -35 49 0 16 -9 29 -20 29 -11 0 -19 7
-18 15 9 56 -5 106 -25 93 -16 -10 -20 -4 -12 17 7 17 6 37 -1 44 -7 7 -13 48
-14 92 l-2 79 52 -50 c29 -28 63 -50 77 -50z"/>
</g>
</svg>
