<?xml version="1.0" standalone="no"?>
<!DOCTYPE svg PUBLIC "-//W3C//DTD SVG 20010904//EN"
 "http://www.w3.org/TR/2001/REC-SVG-20010904/DTD/svg10.dtd">
<svg version="1.0" xmlns="http://www.w3.org/2000/svg"
 width="300.000000pt" height="300.000000pt" viewBox="0 0 300.000000 300.000000"
 preserveAspectRatio="xMidYMid meet">
<metadata>
Created by potrace 1.10, written by Peter Selinger 2001-2011
</metadata>
<g transform="translate(0.000000,300.000000) scale(0.050000,-0.050000)"
fill="#ffffff" stroke="none">
<path d="M2170 4399 c-1120 -44 -1180 -114 -1180 -1399 0 -1087 92 -1295 600
-1359 546 -69 2306 -69 2839 1 475 61 590 327 591 1368 0 1034 -117 1289 -620
1350 -435 52 -1448 69 -2230 39z m2150 -226 c447 -58 478 -123 494 -1023 17
-889 -29 -1156 -214 -1252 -38 -20 -79 -43 -90 -52 -11 -9 -47 -17 -80 -17
-33 -1 -235 -13 -450 -27 -645 -42 -2100 -19 -2401 38 -352 67 -397 198 -399
1158 -2 815 63 1145 215 1087 20 -7 27 -4 18 10 -68 109 2193 170 2907 78z"/>
<path d="M2517 3663 l-97 -97 0 -570 0 -570 72 -74 c40 -42 92 -82 115 -91 44
-16 213 30 213 58 0 8 11 15 25 15 14 0 90 38 170 85 79 46 154 78 165 71 12
-7 19 -1 15 14 -3 15 11 25 31 23 20 -2 32 2 25 8 -6 6 63 56 154 110 168 100
346 255 366 318 27 84 -116 242 -336 371 -74 44 -128 86 -120 94 8 9 6 12 -6
9 -33 -11 -489 248 -475 269 7 11 3 14 -9 7 -11 -7 -53 1 -92 17 -102 43 -108
41 -216 -67z m485 -290 c214 -125 445 -257 513 -295 156 -85 167 -64 -120
-227 -135 -76 -366 -209 -513 -295 -147 -86 -273 -156 -280 -156 -7 0 -12 270
-12 600 0 330 5 600 12 600 6 0 186 -102 400 -227z"/>
</g>
</svg>
